<svg width="1200" height="900" viewBox="0 0 1200 900" fill="none" xmlns="http://www.w3.org/2000/svg">
  <rect width="1200" height="900" fill="#E7DCC1"/>
  <rect y="618" width="1200" height="282" fill="#2F6B5B"/>
  <circle cx="290" cy="262" r="110" fill="#F4E9D3"/>
  <circle cx="896" cy="242" r="108" fill="#D0B36A"/>
  <circle cx="312" cy="420" r="86" fill="#1E3D37"/>
  <path d="M166 674C166 560.23 258.23 468 372 468H378C491.77 468 584 560.23 584 674V758H166V674Z" fill="#5A9E83"/>
  <circle cx="892" cy="404" r="84" fill="#1E3D37"/>
  <path d="M734 672C734 557.126 827.126 464 942 464H948C1062.87 464 1156 557.126 1156 672V760H734V672Z" fill="#D66B3D"/>
  <rect x="420" y="412" width="360" height="228" rx="18" fill="#F7F2E8"/>
  <rect x="444" y="438" width="312" height="180" rx="10" fill="#FBF8EF"/>
  <path d="M470 486H728" stroke="#2F6B5B" stroke-width="18" stroke-linecap="round"/>
  <path d="M470 536H632" stroke="#D0B36A" stroke-width="18" stroke-linecap="round"/>
  <path d="M470 586H694" stroke="#2F6B5B" stroke-width="18" stroke-linecap="round"/>
  <path d="M528 390L566 454" stroke="#1E3D37" stroke-width="14" stroke-linecap="round"/>
  <path d="M638 390L674 454" stroke="#1E3D37" stroke-width="14" stroke-linecap="round"/>
  <circle cx="602" cy="332" r="52" fill="#F5E2A6"/>
  <path d="M582 332H622" stroke="#D66B3D" stroke-width="14" stroke-linecap="round"/>
  <path d="M602 312V352" stroke="#D66B3D" stroke-width="14" stroke-linecap="round"/>
</svg>
