<svg width="1200" height="900" viewBox="0 0 1200 900" fill="none" xmlns="http://www.w3.org/2000/svg">
  <rect width="1200" height="900" fill="#E6D7B7"/>
  <rect y="560" width="1200" height="340" fill="#2F6B5B"/>
  <circle cx="235" cy="235" r="116" fill="#F3E8CF"/>
  <circle cx="600" cy="205" r="132" fill="#D0B36A"/>
  <circle cx="945" cy="245" r="108" fill="#F3E8CF"/>
  <circle cx="270" cy="410" r="82" fill="#1E3D37"/>
  <path d="M150 660C150 556.171 234.171 472 338 472H344C447.829 472 532 556.171 532 660V748H150V660Z" fill="#5A9E83"/>
  <circle cx="606" cy="398" r="90" fill="#1E3D37"/>
  <path d="M446 672C446 554.916 540.916 460 658 460H662C779.084 460 874 554.916 874 672V760H446V672Z" fill="#D66B3D"/>
  <circle cx="930" cy="426" r="76" fill="#1E3D37"/>
  <path d="M790 680C790 579.485 871.485 498 972 498H976C1076.52 498 1158 579.485 1158 680V754H790V680Z" fill="#86B99D"/>
  <ellipse cx="600" cy="650" rx="248" ry="54" fill="#F7F2E8"/>
  <ellipse cx="600" cy="650" rx="214" ry="38" fill="#D0B36A"/>
  <path d="M388 648H808" stroke="#1E3D37" stroke-width="12" stroke-linecap="round"/>
  <path d="M514 620L468 648L514 676" stroke="#1E3D37" stroke-width="12" stroke-linecap="round" stroke-linejoin="round"/>
  <path d="M684 620L730 648L684 676" stroke="#1E3D37" stroke-width="12" stroke-linecap="round" stroke-linejoin="round"/>
</svg>
